#!OML:ASF F:\VICON\USERDATA\INSTALL\SteveWalk\SteveWalk.ASF
:FULLY-SPECIFIED
:DEGREES
324
root 0.493022 16.2664 24.7056 16.7286 -1.47106 2.20887
lowerback -14.8712 -0.554609 -5.36303
upperback -5.10214 0.0817929 -1.20623
thorax 2.91754 0.0583811 1.77667
lowerneck -4.50899 -0.116013 -1.04252
upperneck 9.1229 -0.317615 2.62308
head 3.7735 -0.0806039 1.03729
rclavicle 1.04207e-014 -1.19271e-014
rhumerus -39.1192 0.380674 -90.122
rradius 38.644
rwrist -18.5317
rhand -22.8094 -31.6444
rfingers 7.12502
rthumb 3.62716 -421.593
lclavicle 1.04207e-014 -1.19271e-014
lhumerus -44.3878 26.6262 65.3998
lradius 15.4585
lwrist -25.436
lhand -15.3423 -13.9057
lfingers 7.12502
lthumb 10.8346 15.7948
rfemur -37.8395 -5.55859 18.6269
rtibia 75.2771
rfoot -4.56476 4.54756
rtoes -6.67311
lfemur -32.2808 3.00231 -26.5529
ltibia 36.7896
lfoot -19.5923 -2.59775
ltoes -9.49575
325
root 0.51704 16.2674 24.9147 16.6076 -1.1086 1.94255
lowerback -14.8834 -0.621512 -4.81246
upperback -5.05914 -0.0865174 -1.10464
thorax 2.98396 -0.0290434 1.54458
lowerneck -4.42999 -0.146811 -1.18724
upperneck 9.26281 -0.357622 2.6979
head 3.80967 -0.10218 1.08699
rclavicle -5.98528e-015 -9.14409e-015
rhumerus -39.8296 -1.05092 -89.4975
rradius 36.5966
rwrist -17.4276
rhand -22.9305 -31.3303
rfingers 7.12502
rthumb 3.51019 -421.281
lclavicle -5.98528e-015 -9.14409e-015
lhumerus -42.089 24.2451 68.3873
lradius 16.3069
lwrist -22.463
lhand -15.6695 -14.0124
lfingers 7.12502
lthumb 10.519 15.7044
rfemur -38.8305 -5.93604 19.2503
rtibia 74.428
rfoot -6.44988 4.35542
rtoes -7.661
lfemur -31.245 3.25108 -26.3689
ltibia 36.8121
lfoot -20.403 -2.6897
ltoes -8.95947
326
root 0.543726 16.2721 25.1442 16.6921 -0.716988 1.52645
lowerback -15.3316 -0.66539 -4.03635
upperback -5.05327 -0.236842 -0.971759
thorax 3.24103 -0.110512 1.21902
lowerneck -4.26634 -0.127614 -1.25711
upperneck 9.40413 -0.334743 2.74692
head 3.82766 -0.0917326 1.11732
rclavicle -3.91357e-015 -1.47101e-014
rhumerus -40.5504 -2.72797 -88.64
rradius 34.3739
rwrist -16.1239
rhand -22.8144 -31.455
rfingers 7.12502
rthumb 3.62232 -421.404
lclavicle -3.91357e-015 -1.47101e-014
lhumerus -40.1237 22.2345 70.7729
lradius 17.2561
lwrist -19.8225
lhand -15.4179 -13.5431
lfingers 7.12502
lthumb 10.7617 16.1612
rfemur -39.834 -6.34158 20.0148
rtibia 73.3595
rfoot -8.26244 4.12311
rtoes -7.34962
lfemur -30.3141 3.64606 -26.0903
ltibia 36.7587
lfoot -21.2678 -2.59567
ltoes -9.9788
327
root 0.545101 16.2668 25.3522 16.6681 -0.629717 1.53423
lowerback -15.352 -0.805475 -4.12058
upperback -5.17908 -0.41624 -0.87141
thorax 3.12876 -0.195121 1.34031
lowerneck -3.79032 -0.0659124 -1.21209
upperneck 9.47204 -0.25308 2.67859
head 3.75548 -0.0555548 1.08822
rclavicle -9.31803e-017 3.97569e-016
rhumerus -41.348 -4.26661 -87.7523
rradius 31.952
rwrist -14.9496
rhand -22.6182 -31.9004
rfingers 7.12502
rthumb 3.81179 -421.846
lclavicle -9.31803e-017 3.97569e-016
lhumerus -38.5824 20.7187 72.4184
lradius 18.023
lwrist -18.0384
lhand -15.586 -13.9742
lfingers 7.12502
lthumb 10.5995 15.7385
rfemur -41.046 -6.29605 20.3699
rtibia 72.2097
rfoot -9.29684 3.9036
rtoes -4.19876
lfemur -29.4103 4.14778 -26.1603
ltibia 36.6746
lfoot -21.8938 -2.66054
ltoes -10.5571
328
root 0.541604 16.2444 25.535 16.5161 -0.532133 1.76235
lowerback -14.9532 -0.991819 -4.48546
upperback -5.31563 -0.63727 -0.824181
thorax 2.78528 -0.294569 1.56064
lowerneck -3.2064 0.00294711 -1.14622
upperneck 9.40594 -0.160512 2.60598
head 3.61545 -0.0144901 1.05244
rclavicle -7.16867e-015 7.15625e-015
rhumerus -42.1718 -5.96931 -86.6518
rradius 29.5482
rwrist -13.6623
rhand -22.864 -31.3319
rfingers 7.12502
rthumb 3.5744 -421.282
lclavicle -7.16867e-015 7.15625e-015
lhumerus -37.0937 18.8367 74.0635
lradius 18.6311
lwrist -16.5184
lhand -16.7209 -15.0473
lfingers 7.12502
lthumb 9.50468 14.7183
rfemur -42.2191 -6.20317 20.5305
rtibia 70.9535
rfoot -10.1869 3.52593
rtoes -3.87914
lfemur -28.5053 4.50059 -26.3678
ltibia 36.6062
lfoot -22.3709 -3.1017
ltoes -9.57852
329
root 0.551421 16.2327 25.7322 16.4371 -0.221162 1.81517
lowerback -14.95 -1.10828 -4.41169
upperback -5.20593 -0.798913 -0.78932
thorax 2.90891 -0.378734 1.52708
lowerneck -3.1132 0.0288411 -1.21332
upperneck 9.34855 -0.128027 2.68588
head 3.57737 0.00159607 1.09103
rclavicle 1.2424e-017 2.0276e-014
rhumerus -42.8138 -8.12082 -85.1367
rradius 27.4687
rwrist -11.9075
rhand -22.8771 -30.9512
rfingers 7.12502
rthumb 3.56178 -420.901
lclavicle 1.2424e-017 2.0276e-014
lhumerus -35.2244 16.5474 75.9697
lradius 19.4682
lwrist -14.7359
lhand -17.616 -15.1213
lfingers 7.12502
lthumb 8.6409 14.6818
rfemur -43.1986 -6.42983 20.8617
rtibia 69.4072
rfoot -11.3055 3.04049
rtoes -6.99344
lfemur -27.5535 4.72656 -26.3891
ltibia 36.513
lfoot -23.0033 -3.65175
ltoes -8.08807
